inDegrees=yes
name=ik_lifting_orientations
DataType=double
version=3
OpenSimVersion=4.5-2024-01-10-34fd6af
endheader
time	pelvis_tilt	pelvis_list	pelvis_rotation	pelvis_tx	pelvis_ty	pelvis_tz	hip_flexion_r	hip_adduction_r	hip_rotation_r	knee_angle_r	knee_angle_r_beta	ankle_angle_r	subtalar_angle_r	mtp_angle_r	hip_flexion_l	hip_adduction_l	hip_rotation_l	knee_angle_l	knee_angle_l_beta	ankle_angle_l	subtalar_angle_l	mtp_angle_l	lumbar_extension	lumbar_bending	lumbar_rotation	arm_flex_r	arm_add_r	arm_rot_r	elbow_flex_r	pro_sup_r	wrist_flex_r	wrist_dev_r	arm_flex_l	arm_add_l	arm_rot_l	elbow_flex_l	pro_sup_l	wrist_flex_l	wrist_dev_l
6.71	0.008461047315379038	-0.003965181757856123	-90.02540028939703	0	0.9399999998679526	0	44.99736514624073	-10.02964043434085	0	59.99876065245638	1.047175920501385	-5.004880061910475	0	0	44.99736514624073	-10.02964043434085	0	59.99876065245638	1.047175920501385	-5.004880061910475	0	0	0.01392188854925427	-0.003031431214067168	0.03609322894374088	14.32853970354801	-39.60659542757024	19.93763410364527	0.09556257315654186	1.002356910856961	0	0	0	-12.67408128869745	0	89.01738453032712	1.002356910856961	0	0
6.72	0.006327190575185836	-0.007609691520436931	-90.00481863805003	0	0.9399999998679526	0	44.99736685598406	-10.02957300457846	0	59.99876135305715	1.047175932729175	-5.004865572126497	0	0	44.99736685598406	-10.02957300457846	0	59.99876135305715	1.047175932729175	-5.004865572126497	0	0	0.002979481177863641	-0.001730303931231293	0.01207696352437857	12.6377583809011	-38.73257086652634	18.52419125185744	0.2754042849298549	1.001904843779155	0	0	0	-12.67485260053957	0	89.01782761307472	1.001904843779155	0	0
6.73	0.0006116417962856267	-0.000360052365757972	-90.00132551673657	0	0.9399999998679526	0	44.99736841602414	-10.02951160528582	0	59.99876199265821	1.04717594389232	-5.004852388253525	0	0	44.99736841602414	-10.02951160528582	0	59.99876199265821	1.04717594389232	-5.004852388253525	0	0	0.0009076554537710629	-0.007141122435591124	-0.000130241467551613	10.49067154208736	-38.02600595181541	16.78673970794478	1.395692890202391	1.001492217221326	0	0	0	-12.67555679251344	0	89.01823203914169	1.001492217221326	0	0
6.74	-0.003897560458443838	0.003151255839839948	-90.00240129001274	0	0.9399999998679526	0	44.99737070362971	-10.0294218923042	0	59.99876293108925	1.047175960271031	-5.004833151985207	0	0	44.99737070362971	-10.0294218923042	0	59.99876293108925	1.047175960271031	-5.004833151985207	0	0	0.002175815993850129	0.0002070343411879769	0.00746288243374363	8.771904159826658	-37.06948937053217	15.85939665666427	2.507535100348784	1.000886878483934	0	0	0	-12.6765901368514	0	89.01882534745434	1.000886878483934	0	0
6.75	0.01137184129270937	-0.001777358238423053	-89.99258766580328	0	0.9399999998679526	0	44.99737185284673	-10.029376822358	0	59.99876340245733	1.047175968497956	-5.004823488699818	0	0	44.99737185284673	-10.029376822358	0	59.99876340245733	1.047175968497956	-5.004823488699818	0	0	-0.01356028309858421	-0.02641284410238443	-0.02601456034187019	8.06281030318225	-35.95832945762159	15.27006972299978	3.03973852164976	1.0005827725413	0	0	0	-12.67710927847579	0	89.01912340963506	1.0005827725413	0	0
6.76	0.008555782922801982	-0.002997251087647696	-90.01322298419905	0	0.9399999998679526	0	44.9973830773771	-10.02906666676846	0	59.99876917374743	1.04717606922597	-5.004761998715914	0	0	44.9973830773771	-10.02906666676846	0	59.99876917374743	1.04717606922597	-5.004761998715914	0	0	0.00238419473010915	-0.006702147989138926	0.004871604930154409	7.322050703933117	-34.58628126132481	14.4930967778572	3.60264995367005	0.9973273972745784	0	0	0	-12.68308633698431	0	89.02231409244996	0.9973273972745784	0	0
6.77	0.008281107847497544	-0.005092242610697811	-89.99392879143927	0	0.9399999998679526	0	44.99738414180774	-10.0290252371363	0	59.99876961047035	1.047176076848223	-5.004753139982993	0	0	44.99738414180774	-10.0290252371363	0	59.99876961047035	1.047176076848223	-5.004753139982993	0	0	-0.01545770243822268	-0.01901264136972115	-0.02405419856825541	6.76603492653921	-33.29184995526519	13.8320181109598	4.061906068861751	0.9970453889455032	0	0	0	-12.6835681414582	0	89.02259049619153	0.9970453889455032	0	0
6.78	0.002131714428817021	0.001817652949762307	-90.00150596232506	0	0.9399999998679526	0	44.99738504298286	-10.0289902079734	0	59.99876998035989	1.047176083304014	-5.004745653363481	0	0	44.99738504298286	-10.0289902079734	0	59.99876998035989	1.047176083304014	-5.004745653363481	0	0	0.001165535353753177	-0.002484224057052317	0.00405152357548771	6.861467622501578	-32.43999484592042	13.7442875623354	4.139706673158424	0.9968065766425153	0	0	0	-12.68397621781927	0	89.02282456237883	0.9968065766425153	0	0
6.79	0.0002169442506384875	-0.01098254794676505	-89.99335312577733	0	0.9399999998679526	0	44.99738652517955	-10.02893261131081	0	59.99877058838042	1.047176093915974	-5.004733347479958	0	0	44.99738652517955	-10.02893261131081	0	59.99877058838042	1.047176093915974	-5.004733347479958	0	0	-0.00397218527088825	-0.004327864680820579	-0.007531110367670263	7.447359174481406	-31.10499753804127	14.04739220355955	3.55107289934316	0.9964138410037233	0	0	0	-12.68464722146363	0	89.02320949285503	0.9964138410037233	0	0
